<?xml version="1.0" encoding="UTF-8" standalone="no"?>
<svg
   xmlns:dc="http://purl.org/dc/elements/1.1/"
   xmlns:cc="http://creativecommons.org/ns#"
   xmlns:rdf="http://www.w3.org/1999/02/22-rdf-syntax-ns#"
   xmlns:svg="http://www.w3.org/2000/svg"
   xmlns="http://www.w3.org/2000/svg"
   xmlns:sodipodi="http://sodipodi.sourceforge.net/DTD/sodipodi-0.dtd"
   xmlns:inkscape="http://www.inkscape.org/namespaces/inkscape"
   width="20mm"
   height="20mm"
   viewBox="0 0 20 20"
   version="1.1"
   id="svg4881"
   inkscape:version="1.0.2-2 (e86c870879, 2021-01-15)"
   sodipodi:docname="redd.svg">
  <defs
     id="defs4875">
    <filter
       inkscape:collect="always"
       style="color-interpolation-filters:sRGB"
       id="filter2460-2"
       x="-0.22115609"
       width="1.4423122"
       y="-0.2653873"
       height="1.5307746">
      <feGaussianBlur
         inkscape:collect="always"
         stdDeviation="0.42484077"
         id="feGaussianBlur2462-4" />
    </filter>
  </defs>
  <sodipodi:namedview
     id="base"
     pagecolor="#ffffff"
     bordercolor="#666666"
     borderopacity="1.0"
     inkscape:pageopacity="0.0"
     inkscape:pageshadow="2"
     inkscape:zoom="1.4"
     inkscape:cx="77.424295"
     inkscape:cy="-11.112065"
     inkscape:document-units="mm"
     inkscape:current-layer="layer1"
     inkscape:document-rotation="0"
     showgrid="false"
     fit-margin-top="0"
     fit-margin-left="0"
     fit-margin-right="0"
     fit-margin-bottom="0"
     inkscape:window-width="1366"
     inkscape:window-height="746"
     inkscape:window-x="1358"
     inkscape:window-y="263"
     inkscape:window-maximized="1" />
  <metadata
     id="metadata4878">
    <rdf:RDF>
      <cc:Work
         rdf:about="">
        <dc:format>image/svg+xml</dc:format>
        <dc:type
           rdf:resource="http://purl.org/dc/dcmitype/StillImage" />
        <dc:title></dc:title>
      </cc:Work>
    </rdf:RDF>
  </metadata>
  <g
     inkscape:label="Warstwa 1"
     inkscape:groupmode="layer"
     id="layer1"
     transform="translate(-27.970238,-163.28572)">
    <g
       id="g3493"
       transform="translate(-46.897412,-36.017702)">
      <path
         id="path2677"
         style="fill:#dd5d25;fill-opacity:1;fill-rule:evenodd;stroke:#741b12;stroke-width:0.529;stroke-linecap:round;stroke-linejoin:round;stroke-miterlimit:4;stroke-dasharray:none;stroke-opacity:1;paint-order:markers fill stroke"
         d="m 91.782975,201.91266 a 3.7083645,3.7083645 0 0 0 -2.62568,1.08365 3.7083645,3.7083645 0 0 0 -0.438732,0.5271 7.0986686,7.0986686 0 0 0 -3.67678,-1.02681 7.0986686,7.0986686 0 0 0 -3.711916,1.048 3.7083645,3.7083645 0 0 0 -1.068671,-0.66817 3.7083645,3.7083645 0 0 0 -4.075202,0.86092 3.7083645,3.7083645 0 0 0 2.18953,3.4184 7.0986686,7.0986686 0 0 0 -0.43253,2.43964 7.0986686,7.0986686 0 0 0 7.098789,7.0988 7.0986686,7.0986686 0 0 0 7.098792,-7.0988 7.0986686,7.0986686 0 0 0 -0.517798,-2.66133 3.7083645,3.7083645 0 0 0 0.838708,-0.62787 3.7083645,3.7083645 0 0 0 0.786517,-4.08916 3.7083645,3.7083645 0 0 0 -1.465027,-0.30437 z" />
      <circle
         style="opacity:0.998;fill:#dd5d25;fill-opacity:1;fill-rule:evenodd;stroke:none;stroke-width:0.529;stroke-linecap:round;stroke-linejoin:round;stroke-miterlimit:4;stroke-dasharray:none;stroke-opacity:1;paint-order:markers fill stroke"
         id="circle2537"
         cx="85.041824"
         cy="209.59532"
         r="7.0986686" />
      <path
         id="path2679"
         style="fill:#ffd2c4;fill-opacity:1;fill-rule:evenodd;stroke:none;stroke-width:0.529;stroke-linecap:round;stroke-linejoin:round;stroke-miterlimit:4;stroke-dasharray:none;stroke-opacity:1;paint-order:markers fill stroke"
         d="m 91.520458,202.61391 c -0.727842,0.002 -1.425321,0.29196 -1.940449,0.80615 -0.13375,0.13362 -0.391803,0.41289 -0.357084,0.43873 0.826235,0.68683 1.248169,1.39948 1.902359,2.44044 0.148386,0.23612 0.715539,-0.21984 0.912971,-0.41679 0.799574,-0.79839 1.031375,-2.00367 0.584978,-3.04167 -0.348086,-0.15063 -0.723495,-0.22786 -1.102775,-0.22686 z"
         sodipodi:nodetypes="cccsccc" />
      <path
         id="path2672"
         style="fill:#ffd2c4;fill-opacity:1;fill-rule:evenodd;stroke:none;stroke-width:0.528999;stroke-linecap:round;stroke-linejoin:round;stroke-miterlimit:4;stroke-dasharray:none;stroke-opacity:1;paint-order:markers fill stroke"
         d="m 83.895409,205.74926 a 1.7773262,1.7773262 0 0 0 -1.98096,-0.60061 1.7773262,1.7773262 0 0 0 0.0688,2.06872 1.7773262,1.7773262 0 0 0 1.980959,0.6006 1.7773262,1.7773262 0 0 0 -0.0688,-2.06871 z" />
      <circle
         style="opacity:0.998;fill:#ffffff;fill-opacity:1;fill-rule:evenodd;stroke:none;stroke-width:0.529167;stroke-linecap:round;stroke-linejoin:round;stroke-miterlimit:4;stroke-dasharray:none;stroke-opacity:1;paint-order:markers fill stroke"
         id="circle2539"
         cx="82.194901"
         cy="207.82318"
         r="1.6704345" />
      <circle
         style="opacity:0.998;fill:#aa2517;fill-opacity:1;fill-rule:evenodd;stroke:none;stroke-width:0.529167;stroke-linecap:round;stroke-linejoin:round;stroke-miterlimit:4;stroke-dasharray:none;stroke-opacity:1;paint-order:markers fill stroke"
         id="circle2541"
         cx="82.194901"
         cy="207.58931"
         r="1.1693041" />
      <path
         id="path2543"
         style="opacity:0.587097;fill:#ffffff;fill-opacity:1;fill-rule:evenodd;stroke:none;stroke-width:0.529167;stroke-linecap:round;stroke-linejoin:round;stroke-miterlimit:4;stroke-dasharray:none;stroke-opacity:1;paint-order:markers fill stroke"
         d="m 82.097921,206.35315 a 1.2096635,1.2096635 0 0 0 -1.209107,1.17917 1.2096635,1.2096635 0 0 0 0.70129,0.22415 1.2096635,1.2096635 0 0 0 1.208731,-1.17916 1.2096635,1.2096635 0 0 0 -0.700914,-0.22416 z" />
      <circle
         style="opacity:0.998;fill:none;fill-opacity:1;fill-rule:evenodd;stroke:#741b12;stroke-width:0.229;stroke-linecap:round;stroke-linejoin:round;stroke-miterlimit:4;stroke-dasharray:none;stroke-opacity:1;paint-order:markers fill stroke"
         id="circle2545"
         cx="82.194901"
         cy="207.82318"
         r="1.6704345" />
      <path
         id="path2674"
         style="fill:#ffd2c4;fill-opacity:1;fill-rule:evenodd;stroke:none;stroke-width:0.528999;stroke-linecap:round;stroke-linejoin:round;stroke-miterlimit:4;stroke-dasharray:none;stroke-opacity:1;paint-order:markers fill stroke"
         d="m 88.029524,207.21736 a 1.7773262,1.7773262 0 0 1 -1.98096,0.60061 1.7773262,1.7773262 0 0 1 0.0688,-2.06872 1.7773262,1.7773262 0 0 1 1.980959,-0.6006 1.7773262,1.7773262 0 0 1 -0.0688,2.06871 z" />
      <circle
         style="opacity:0.998;fill:#ffffff;fill-opacity:1;fill-rule:evenodd;stroke:none;stroke-width:0.529167;stroke-linecap:round;stroke-linejoin:round;stroke-miterlimit:4;stroke-dasharray:none;stroke-opacity:1;paint-order:markers fill stroke"
         id="circle2547"
         cx="87.807556"
         cy="207.82318"
         r="1.6704345" />
      <circle
         style="opacity:0.998;fill:#aa2517;fill-opacity:1;fill-rule:evenodd;stroke:none;stroke-width:0.529167;stroke-linecap:round;stroke-linejoin:round;stroke-miterlimit:4;stroke-dasharray:none;stroke-opacity:1;paint-order:markers fill stroke"
         id="circle2549"
         cx="87.807556"
         cy="207.58931"
         r="1.1693041" />
      <path
         id="path2551"
         style="opacity:0.587097;fill:#ffffff;fill-opacity:1;fill-rule:evenodd;stroke:none;stroke-width:0.529167;stroke-linecap:round;stroke-linejoin:round;stroke-miterlimit:4;stroke-dasharray:none;stroke-opacity:1;paint-order:markers fill stroke"
         d="m 87.710581,206.35315 a 1.2096635,1.2096635 0 0 0 -1.209107,1.17917 1.2096635,1.2096635 0 0 0 0.70129,0.22415 1.2096635,1.2096635 0 0 0 1.208731,-1.17916 1.2096635,1.2096635 0 0 0 -0.700914,-0.22416 z" />
      <circle
         style="opacity:0.998;fill:none;fill-opacity:1;fill-rule:evenodd;stroke:#741b12;stroke-width:0.229;stroke-linecap:round;stroke-linejoin:round;stroke-miterlimit:4;stroke-dasharray:none;stroke-opacity:1;paint-order:markers fill stroke"
         id="circle2553"
         cx="87.807556"
         cy="207.82318"
         r="1.6704345" />
      <path
         id="path2646"
         style="fill:#ffd2c4;fill-opacity:1;fill-rule:evenodd;stroke:none;stroke-width:0.528999;stroke-linecap:round;stroke-linejoin:round;stroke-miterlimit:4;stroke-dasharray:none;stroke-opacity:1;paint-order:markers fill stroke"
         d="m 85.041822,209.28029 a 3.9222526,3.9222526 0 0 0 -3.713569,2.66033 3.9222526,3.9222526 0 0 0 3.713569,2.65978 3.9222526,3.9222526 0 0 0 3.713568,-2.66033 3.9222526,3.9222526 0 0 0 -3.713568,-2.65978 z" />
      <path
         style="fill:#741b12;fill-opacity:1;stroke:none;stroke-width:0.264583px;stroke-linecap:butt;stroke-linejoin:miter;stroke-opacity:1"
         d="m 86.445557,210.47997 c -0.347666,-0.86844 -2.448352,-0.86424 -2.80633,0 -0.247101,0.59656 1.369756,1.36975 1.369756,1.36975 0,0 1.68248,-0.7555 1.436574,-1.36975 z"
         id="path2555"
         sodipodi:nodetypes="sscs" />
      <path
         id="path2557"
         style="color:#000000;font-style:normal;font-variant:normal;font-weight:normal;font-stretch:normal;font-size:medium;line-height:normal;font-family:sans-serif;font-variant-ligatures:normal;font-variant-position:normal;font-variant-caps:normal;font-variant-numeric:normal;font-variant-alternates:normal;font-variant-east-asian:normal;font-feature-settings:normal;font-variation-settings:normal;text-indent:0;text-align:start;text-decoration:none;text-decoration-line:none;text-decoration-style:solid;text-decoration-color:#000000;letter-spacing:normal;word-spacing:normal;text-transform:none;writing-mode:lr-tb;direction:ltr;text-orientation:mixed;dominant-baseline:auto;baseline-shift:baseline;text-anchor:start;white-space:normal;shape-padding:0;shape-margin:0;inline-size:0;clip-rule:nonzero;display:inline;overflow:visible;visibility:visible;isolation:auto;mix-blend-mode:normal;color-interpolation:sRGB;color-interpolation-filters:linearRGB;solid-color:#000000;solid-opacity:1;vector-effect:none;fill:#741b12;fill-opacity:1;fill-rule:nonzero;stroke:none;stroke-width:1;stroke-linecap:round;stroke-linejoin:miter;stroke-miterlimit:4;stroke-dasharray:none;stroke-dashoffset:0;stroke-opacity:1;color-rendering:auto;image-rendering:auto;shape-rendering:auto;text-rendering:auto;enable-background:accumulate;stop-color:#000000"
         d="m 85.042015,211.01938 a 0.1322915,0.1322915 0 0 0 -0.13281,0.13075 v 1.5074 l -1.025261,0.59221 a 0.1322915,0.1322915 0 0 0 -0.04702,0.17983 0.1322915,0.1322915 0 0 0 0.179834,0.0491 l 1.025261,-0.59273 1.02371,0.59273 a 0.13229166,0.13229166 0 0 0 0.181382,-0.0491 0.13229166,0.13229166 0 0 0 -0.04857,-0.17983 l -1.02371,-0.59221 v -1.5074 a 0.1322915,0.1322915 0 0 0 -0.132807,-0.13075 z" />
      <ellipse
         style="opacity:0.548387;fill:#ff8080;fill-opacity:1;fill-rule:evenodd;stroke:none;stroke-width:0.712656;stroke-linecap:round;stroke-linejoin:round;stroke-miterlimit:4;stroke-dasharray:none;stroke-opacity:1;paint-order:markers fill stroke;filter:url(#filter2460-2)"
         id="ellipse3211"
         cx="63.376286"
         cy="-190.81374"
         rx="2.3051996"
         ry="1.9209996"
         transform="matrix(0.75378432,0,0,-0.73097647,33.860233,72.039554)" />
      <path
         style="fill:#741b12;fill-opacity:1;stroke:#741b12;stroke-width:0.264583px;stroke-linecap:round;stroke-linejoin:miter;stroke-opacity:1"
         d="m 82.582656,211.14172 -3.071135,-0.823"
         id="path2561" />
      <path
         style="fill:#741b12;fill-opacity:1;stroke:#741b12;stroke-width:0.264583px;stroke-linecap:round;stroke-linejoin:miter;stroke-opacity:1"
         d="m 82.509422,211.8009 -2.453305,0.51269"
         id="path2563" />
      <path
         style="fill:#741b12;fill-opacity:1;stroke:#741b12;stroke-width:0.264583px;stroke-linecap:round;stroke-linejoin:miter;stroke-opacity:1"
         d="m 82.747432,212.35021 -1.373119,1.15356"
         id="path2565"
         sodipodi:nodetypes="cc" />
      <ellipse
         style="opacity:0.548387;fill:#ff8080;fill-opacity:1;fill-rule:evenodd;stroke:none;stroke-width:0.712656;stroke-linecap:round;stroke-linejoin:round;stroke-miterlimit:4;stroke-dasharray:none;stroke-opacity:1;paint-order:markers fill stroke;filter:url(#filter2460-2)"
         id="ellipse3213"
         cx="63.376286"
         cy="-190.81374"
         rx="2.3051996"
         ry="1.9209996"
         transform="matrix(0.75378432,0,0,-0.73097647,41.183522,72.039554)" />
      <path
         style="fill:#741b12;fill-opacity:1;stroke:#741b12;stroke-width:0.264583px;stroke-linecap:round;stroke-linejoin:miter;stroke-opacity:1"
         d="m 87.349659,211.07085 3.071135,-0.823"
         id="path2666" />
      <path
         style="fill:#741b12;fill-opacity:1;stroke:#741b12;stroke-width:0.264583px;stroke-linecap:round;stroke-linejoin:miter;stroke-opacity:1"
         d="m 87.422893,211.73003 2.453305,0.51269"
         id="path2668" />
      <path
         style="fill:#741b12;fill-opacity:1;stroke:#741b12;stroke-width:0.264583px;stroke-linecap:round;stroke-linejoin:miter;stroke-opacity:1"
         d="m 87.184883,212.27934 1.373119,1.15356"
         id="path2670"
         sodipodi:nodetypes="cc" />
      <path
         id="path2775"
         style="fill:none;fill-opacity:1;fill-rule:evenodd;stroke:#741b12;stroke-width:0.529;stroke-linecap:round;stroke-linejoin:round;stroke-miterlimit:4;stroke-dasharray:none;stroke-opacity:1;paint-order:markers fill stroke"
         d="m 91.782975,201.91266 a 3.7083645,3.7083645 0 0 0 -2.62568,1.08365 3.7083645,3.7083645 0 0 0 -0.438732,0.5271 7.0986686,7.0986686 0 0 0 -3.67678,-1.02681 7.0986686,7.0986686 0 0 0 -3.711916,1.048 3.7083645,3.7083645 0 0 0 -1.068671,-0.66817 3.7083645,3.7083645 0 0 0 -4.075202,0.86092 3.7083645,3.7083645 0 0 0 2.18953,3.4184 7.0986686,7.0986686 0 0 0 -0.43253,2.43964 7.0986686,7.0986686 0 0 0 7.098789,7.0988 7.0986686,7.0986686 0 0 0 7.098792,-7.0988 7.0986686,7.0986686 0 0 0 -0.517798,-2.66133 3.7083645,3.7083645 0 0 0 0.838708,-0.62787 3.7083645,3.7083645 0 0 0 0.786517,-4.08916 3.7083645,3.7083645 0 0 0 -1.465027,-0.30437 z" />
      <path
         id="path2683"
         style="fill:#ffd2c4;fill-opacity:1;fill-rule:evenodd;stroke:none;stroke-width:0.529;stroke-linecap:round;stroke-linejoin:round;stroke-miterlimit:4;stroke-dasharray:none;stroke-opacity:1;paint-order:markers fill stroke"
         d="m 78.98324,203.22576 c -0.74735,0.002 -1.461939,0.307 -1.980242,0.84542 -0.01024,1.08535 0.892583,2.10922 1.878108,2.56401 0.400037,-1.03569 1.255112,-1.98565 2.019821,-2.56543 -0.559112,-0.51875 -1.202007,-0.84052 -1.917687,-0.844 z"
         sodipodi:nodetypes="ccccc" />
    </g>
    <rect
       style="opacity:0.887097;fill:none;fill-rule:evenodd;stroke-width:0.264999;stroke-linecap:round;stroke-linejoin:round;paint-order:markers stroke fill"
       id="rect5582"
       width="20"
       height="20"
       x="27.970238"
       y="163.28572" />
  </g>
</svg>
